<svg width="21" height="21" viewBox="0 0 21 21" fill="none" xmlns="http://www.w3.org/2000/svg">
<g clip-path="url(#clip0)">
<path d="M18.4249 11.0367C18.5992 10.7783 18.701 10.4672 18.701 10.1328V9.82382C18.701 8.93004 17.9738 8.20286 17.0801 8.20286C16.6341 8.20286 16.2296 8.38395 15.9363 8.67639C15.1772 6.41885 13.0409 4.78815 10.5308 4.78815C8.02077 4.78815 5.88449 6.41881 5.12542 8.67639C4.83205 8.38395 4.42763 8.20286 3.98165 8.20286C3.08787 8.20286 2.36069 8.93004 2.36069 9.82382V10.1328C2.36069 10.4672 2.46254 10.7783 2.6368 11.0367C1.51475 11.2731 0.669739 12.2706 0.669739 13.462V14.2375C0.669739 14.4502 0.842231 14.6227 1.05494 14.6227H3.05798C3.27068 14.6227 3.44318 14.4502 3.44318 14.2375C3.44318 14.0248 3.27068 13.8523 3.05798 13.8523H1.44014V13.462C1.44014 12.52 2.20645 11.7537 3.14838 11.7537H4.97149C5.11933 12.404 5.37846 13.0124 5.72807 13.5576L1.33298 17.9527C0.770199 18.5155 0.770199 19.4314 1.33301 19.9942C1.61444 20.2756 1.98404 20.4163 2.35372 20.4163C2.72339 20.4163 3.09307 20.2756 3.3745 19.9942L5.79752 17.5711C5.94794 17.4207 5.94794 17.1768 5.79752 17.0264C5.64706 16.876 5.40323 16.876 5.25273 17.0264L2.82975 19.4494C2.56723 19.7119 2.1402 19.7119 1.87772 19.4495C1.61529 19.187 1.61529 18.7599 1.87772 18.4974L6.19223 14.183C7.2387 15.4103 8.79533 16.1901 10.5308 16.1901C13.2399 16.1901 15.5134 14.2906 16.0902 11.7537H17.9133C18.8552 11.7537 19.6216 12.52 19.6216 13.462V13.8523H16.0007C15.788 13.8523 15.6155 14.0248 15.6155 14.2375C15.6155 14.4502 15.788 14.6227 16.0007 14.6227H20.0068C20.2195 14.6227 20.392 14.4502 20.392 14.2375V13.462C20.392 12.2706 19.5469 11.2731 18.4249 11.0367ZM4.83221 10.1328C4.83221 10.6018 4.45067 10.9833 3.98165 10.9833C3.51263 10.9833 3.13109 10.6018 3.13109 10.1328V9.82386C3.13109 9.35484 3.51263 8.9733 3.98165 8.9733C4.45067 8.9733 4.83221 9.35484 4.83221 9.82386V10.1328ZM10.5308 15.4197C7.81215 15.4197 5.60029 13.2078 5.60029 10.4891C5.60029 7.7704 7.81215 5.55855 10.5308 5.55855C13.2495 5.55855 15.4614 7.7704 15.4614 10.4891C15.4614 13.2078 13.2495 15.4197 10.5308 15.4197ZM17.9306 10.1328C17.9306 10.6018 17.549 10.9833 17.08 10.9833C16.611 10.9833 16.2295 10.6018 16.2295 10.1328V9.82386C16.2295 9.35484 16.611 8.9733 17.08 8.9733C17.549 8.9733 17.9306 9.35484 17.9306 9.82386V10.1328Z" fill="#35E7DC"/>
<path d="M10.5308 6.32898C8.23688 6.32898 6.37067 8.19519 6.37067 10.4891C6.37067 11.6798 6.87358 12.7551 7.67796 13.5141C7.69171 13.529 7.70646 13.543 7.72264 13.5557C8.46323 14.2345 9.44945 14.6493 10.5308 14.6493C11.6122 14.6493 12.5984 14.2344 13.339 13.5557C13.3552 13.543 13.3699 13.529 13.3837 13.5141C14.1881 12.7551 14.691 11.6798 14.691 10.4891C14.691 8.19523 12.8248 6.32898 10.5308 6.32898ZM10.5308 13.8789C9.73874 13.8789 9.00932 13.6057 8.4316 13.1488C8.84087 12.3744 9.63847 11.8871 10.5308 11.8871C11.4232 11.8871 12.2208 12.3744 12.63 13.1488C12.0523 13.6057 11.3229 13.8789 10.5308 13.8789ZM9.71909 10.305V10.0057C9.71909 9.55815 10.0832 9.19402 10.5308 9.19402C10.9784 9.19402 11.3426 9.55815 11.3426 10.0057V10.305C11.3426 10.7526 10.9784 11.1167 10.5308 11.1167C10.0832 11.1167 9.71909 10.7526 9.71909 10.305ZM13.1935 12.5846C12.8406 12.0215 12.3241 11.5922 11.7196 11.3473C11.9641 11.0687 12.113 10.704 12.113 10.305V10.0058C12.113 9.13343 11.4032 8.42366 10.5308 8.42366C9.65846 8.42366 8.94869 9.13343 8.94869 10.0058V10.305C8.94869 10.704 9.09746 11.0687 9.34206 11.3473C8.73753 11.5922 8.22105 12.0215 7.86813 12.5846C7.41298 12.0075 7.14107 11.2795 7.14107 10.4891C7.14107 8.62003 8.66172 7.09938 10.5308 7.09938C12.3999 7.09938 13.9206 8.62003 13.9206 10.4891C13.9206 11.2795 13.6487 12.0075 13.1935 12.5846Z" fill="#35E7DC"/>
<path d="M6.82795 15.9961C6.7563 15.9245 6.65692 15.8832 6.55561 15.8832C6.4543 15.8832 6.35492 15.9245 6.28327 15.9961C6.21166 16.0678 6.17041 16.1671 6.17041 16.2684C6.17041 16.3697 6.21163 16.4691 6.28327 16.5408C6.35492 16.6124 6.4543 16.6536 6.55561 16.6536C6.65692 16.6536 6.7563 16.6124 6.82795 16.5408C6.89955 16.4691 6.94081 16.3697 6.94081 16.2684C6.94081 16.1671 6.89959 16.0678 6.82795 15.9961Z" fill="#35E7DC"/>
<path d="M10.5386 0.694824C10.3259 0.694824 10.1534 0.867317 10.1534 1.08002V2.39063C10.1534 2.60337 10.3259 2.77583 10.5386 2.77583C10.7513 2.77583 10.9238 2.60333 10.9238 2.39063V1.08002C10.9238 0.867317 10.7513 0.694824 10.5386 0.694824Z" fill="#35E7DC"/>
<path d="M10.8108 3.3885C10.7392 3.31685 10.6402 3.27563 10.5385 3.27563C10.4372 3.27563 10.3378 3.31681 10.2662 3.3885C10.1945 3.46018 10.1533 3.55953 10.1533 3.66083C10.1533 3.76214 10.1945 3.86152 10.2662 3.93313C10.3378 4.00478 10.4372 4.04603 10.5385 4.04603C10.6402 4.04603 10.7392 4.00482 10.8108 3.93313C10.8825 3.86152 10.9237 3.76214 10.9237 3.66083C10.9237 3.55953 10.8825 3.46015 10.8108 3.3885Z" fill="#35E7DC"/>
<path d="M13.8042 2.2058C13.6538 2.05542 13.4099 2.05542 13.2594 2.2058L12.5824 2.88283C12.432 3.03325 12.432 3.27716 12.5824 3.42762C12.6577 3.50281 12.7562 3.54044 12.8548 3.54044C12.9534 3.54044 13.052 3.50281 13.1272 3.42762L13.8042 2.75059C13.9547 2.60017 13.9547 2.35626 13.8042 2.2058Z" fill="#35E7DC"/>
<path d="M8.48573 2.88745L7.80219 2.20391C7.65174 2.05353 7.4079 2.05353 7.25741 2.20391C7.10699 2.35433 7.10699 2.59824 7.25741 2.7487L7.94098 3.43224C8.01621 3.50743 8.11478 3.54506 8.21336 3.54506C8.31193 3.54506 8.4105 3.50743 8.48573 3.43224C8.63615 3.28182 8.63615 3.03791 8.48573 2.88745Z" fill="#35E7DC"/>
</g>
<defs>
<clipPath id="clip0">
<rect width="19.7222" height="19.7222" fill="white" transform="translate(0.669739 0.694458)"/>
</clipPath>
</defs>
</svg>
