<svg width="60" height="60" viewBox="0 0 60 60" fill="none" xmlns="http://www.w3.org/2000/svg">
<path d="M30.5439 24.6724C30.052 24.6724 29.6534 25.071 29.6534 25.5629V29.3529C29.6534 29.8447 30.052 30.2434 30.5439 30.2434C31.0357 30.2434 31.4344 29.8447 31.4344 29.3529V25.5629C31.4345 25.071 31.0357 24.6724 30.5439 24.6724Z" fill="white"/>
<path d="M59.1903 22.9187C58.9882 22.4703 58.4606 22.2708 58.0125 22.473C57.5641 22.6753 57.3647 23.2026 57.5669 23.651C58.0001 24.6112 58.2198 25.6373 58.2198 26.7006V36.1496C58.2198 37.34 57.452 38.3538 56.3859 38.7238V25.5627C56.3859 25.0708 55.9871 24.6722 55.4954 24.6722C55.0035 24.6722 54.6049 25.0708 54.6049 25.5627V52.169H51.6838V26.7008C51.6838 24.2417 50.7261 21.9297 48.9871 20.1906C48.805 20.0088 48.6153 19.8374 48.4212 19.6727C49.175 19.4134 49.9696 19.278 50.7708 19.2755H50.7933C52.7764 19.2755 54.6415 20.0479 56.0452 21.4505C56.219 21.6242 56.447 21.7112 56.6747 21.7112C56.9026 21.7112 57.1308 21.6241 57.3045 21.4501C57.6522 21.1021 57.652 20.5382 57.3041 20.1906C56.4494 19.3367 55.4562 18.6724 54.3759 18.2162C56.1969 17.037 57.4054 14.9887 57.4054 12.6621C57.4054 9.01597 54.4392 6.04968 50.7931 6.04968C49.8696 6.04968 48.9756 6.2366 48.1363 6.60528C47.686 6.80309 47.4812 7.32845 47.679 7.7788C47.8767 8.22904 48.4021 8.43389 48.8524 8.23607C49.4647 7.96713 50.1177 7.83084 50.7932 7.83084C53.4571 7.83084 55.6244 9.99813 55.6244 12.6621C55.6244 15.3266 53.4571 17.4945 50.7932 17.4945H50.774C49.7005 17.4906 48.6885 17.1416 47.8558 16.5002C48.6305 15.4171 49.0884 14.0925 49.0884 12.6622C49.0884 9.01608 46.1221 6.0498 42.4761 6.0498C41.6935 6.0498 40.927 6.18539 40.1981 6.45281C39.7363 6.62227 39.4995 7.13391 39.6688 7.59576C39.8382 8.0576 40.3498 8.29444 40.8117 8.1251C41.3434 7.92998 41.9035 7.83107 42.4762 7.83107C45.1401 7.83107 47.3074 9.99836 47.3074 12.6623C47.3074 15.3268 45.1401 17.4947 42.4762 17.4947H42.4569C41.3835 17.4908 40.3715 17.1418 39.5388 16.5005C40.3134 15.4173 40.7714 14.0927 40.7714 12.6624C40.7714 9.01632 37.8051 6.05003 34.159 6.05003C33.3156 6.05003 32.4938 6.20695 31.7162 6.51609C31.2592 6.69785 31.0361 7.21571 31.2178 7.67275C31.3995 8.12978 31.9172 8.35303 32.3745 8.17115C32.9416 7.94556 33.5419 7.83119 34.1589 7.83119C36.8229 7.83119 38.9902 9.99848 38.9902 12.6624C38.9902 15.3269 36.8229 17.4948 34.1589 17.4948H34.1397C33.0662 17.4909 32.0542 17.142 31.2216 16.5006C31.9962 15.4174 32.4542 14.0928 32.4542 12.6625C32.4542 9.01644 29.4879 6.05015 25.8418 6.05015C25.0856 6.05015 24.3434 6.17695 23.6362 6.42727C23.1725 6.59121 22.9295 7.10016 23.0935 7.56388C23.2574 8.0276 23.7663 8.27029 24.2301 8.10658C24.7462 7.92412 25.2884 7.83142 25.8418 7.83142C28.5057 7.83142 30.673 9.99871 30.673 12.6627C30.673 15.3272 28.5057 17.495 25.8418 17.495H25.8226C24.7491 17.4912 23.7371 17.1422 22.9045 16.5008C23.6791 15.4176 24.137 14.0931 24.137 12.6628C24.137 9.01667 21.1708 6.05039 17.5247 6.05039C16.5995 6.05039 15.704 6.23801 14.8632 6.60797C14.4131 6.80602 14.2087 7.33161 14.4067 7.78173C14.6048 8.23197 15.1306 8.43623 15.5806 8.23818C16.1939 7.9683 16.8479 7.83142 17.5247 7.83142C20.1886 7.83142 22.3559 9.99871 22.3559 12.6627C22.3559 15.3272 20.1886 17.495 17.5247 17.495H17.5054C16.432 17.4912 15.4199 17.1422 14.5872 16.5007C15.3619 15.4176 15.82 14.0932 15.82 12.663C15.82 9.01679 12.8536 6.05039 9.20741 6.05039C5.5612 6.05039 2.59491 9.01608 2.59491 12.6622C2.59491 14.9948 3.81016 17.0476 5.63948 18.2251C2.3303 19.6422 0 22.9661 0 26.8255V36.1498C0 38.3292 1.5558 40.152 3.61504 40.5666V53.0598C3.61504 53.5516 4.01384 53.9503 4.50556 53.9503H13.9093C13.9101 53.9503 13.9108 53.9502 13.9115 53.9502H17.5223C17.5231 53.9502 17.5238 53.9503 17.5245 53.9503C17.5252 53.9503 17.5261 53.9502 17.5268 53.9502H21.1395H22.2265H25.8391C25.8399 53.9502 25.8406 53.9503 25.8413 53.9503C25.842 53.9503 25.8428 53.9502 25.8435 53.9502H29.4562H30.5433H34.156C34.1568 53.9502 34.1575 53.9503 34.1582 53.9503C34.1589 53.9503 34.1597 53.9502 34.1604 53.9502H37.773H38.8601H42.4728C42.4736 53.9502 42.4743 53.9503 42.475 53.9503C42.4757 53.9503 42.4765 53.9502 42.4772 53.9502H46.0904H47.1774H50.7901C50.791 53.9502 50.7917 53.9503 50.7924 53.9503C50.7931 53.9503 50.7939 53.9502 50.7946 53.9502H55.4943C55.9862 53.9502 56.3848 53.5514 56.3848 53.0596V40.5666C58.4441 40.1521 59.9998 38.3294 59.9998 36.1499V26.7008C60.0007 25.3833 59.7281 24.1107 59.1903 22.9187ZM46.6315 17.8011C46.8205 17.9551 47.0163 18.0981 47.219 18.229C47.0279 18.3108 46.8395 18.3995 46.6539 18.4946C46.4586 18.3949 46.2605 18.3012 46.0589 18.2161C46.257 18.0877 46.4485 17.9494 46.6315 17.8011ZM38.3144 17.8011C38.5035 17.9551 38.6993 18.0981 38.902 18.229C38.7109 18.3108 38.5224 18.3995 38.3369 18.4946C38.1416 18.3949 37.9435 18.3012 37.7419 18.2161C37.94 18.0877 38.1314 17.9494 38.3144 17.8011ZM29.9973 17.8011C30.1863 17.9551 30.3822 18.0981 30.5849 18.229C30.3938 18.3108 30.2053 18.3995 30.0198 18.4946C29.8245 18.3949 29.6264 18.3012 29.4247 18.2161C29.6229 18.0877 29.8144 17.9494 29.9973 17.8011ZM21.6803 17.8011C21.8693 17.9551 22.0651 18.0981 22.2679 18.229C22.0767 18.3108 21.8883 18.3995 21.7028 18.4946C21.5074 18.3949 21.3094 18.3012 21.1077 18.2161C21.3059 18.0877 21.4972 17.9494 21.6803 17.8011ZM4.37595 12.6622C4.37595 9.99813 6.54336 7.83072 9.20741 7.83072C11.8715 7.83072 14.0389 9.99813 14.0389 12.6622C14.0389 15.3262 11.8715 17.4938 9.20741 17.4938C6.54336 17.4938 4.37595 15.3264 4.37595 12.6622ZM13.9508 18.2291C13.7594 18.311 13.5707 18.3999 13.385 18.495C13.1894 18.3953 12.991 18.3018 12.7891 18.2167C12.9878 18.0881 13.1796 17.9497 13.3629 17.8011C13.552 17.955 13.7479 18.0981 13.9508 18.2291ZM16.6341 52.1691H14.7999V40.5667C15.4788 40.4302 16.1025 40.1403 16.6341 39.7353V52.1691ZM16.6341 36.15C16.6341 37.3405 15.8662 38.3546 14.7999 38.7243V25.5626C14.7999 25.0707 14.4011 24.672 13.9094 24.672C13.4175 24.672 13.0189 25.0708 13.0189 25.5626V52.1691H12.8227C12.8219 52.1691 12.8212 52.1692 12.8205 52.1692H10.098V34.9739C10.098 34.482 9.69937 34.0834 9.20753 34.0834C8.71569 34.0834 8.31701 34.4822 8.31701 34.9739V52.1692H5.3962V25.5626C5.3962 25.0707 4.99752 24.672 4.50568 24.672C4.01384 24.672 3.61516 25.0708 3.61516 25.5626V38.724C2.54898 38.3543 1.78115 37.3404 1.78115 36.15V26.8256C1.78115 22.6735 5.10346 19.2865 9.18714 19.2756C11.1757 19.2695 13.0506 20.0427 14.4594 21.4504C15.8618 22.8529 16.6341 24.7175 16.6341 26.7011V36.15ZM24.9513 52.1691H23.1174V40.5666C23.796 40.43 24.4196 40.1402 24.9513 39.7353V52.1691ZM24.9513 36.15C24.9513 37.3404 24.1835 38.3542 23.1174 38.7242V25.5629C23.1174 25.0711 22.7186 24.6724 22.2269 24.6724C21.735 24.6724 21.3363 25.0712 21.3363 25.5629V52.1692H21.1397V52.1691H18.4153V36.1499V26.7008C18.4153 24.2416 17.4577 21.9297 15.7187 20.1906C15.5366 20.0088 15.3468 19.8374 15.1525 19.6728C15.9064 19.4135 16.7011 19.2781 17.5023 19.2756H17.5248C19.5078 19.2756 21.373 20.048 22.7766 21.4504C24.179 22.8529 24.9514 24.7175 24.9514 26.7011V36.15H24.9513ZM33.2683 52.1691H31.4344V40.5666C32.113 40.43 32.7366 40.1402 33.2683 39.7352V52.1691ZM33.2684 36.1499C33.2684 37.3403 32.5006 38.3541 31.4345 38.724V32.3214C31.4345 31.8296 31.0358 31.4309 30.544 31.4309C30.0522 31.4309 29.6535 31.8296 29.6535 32.3214V52.1692H29.4568V52.1691H26.7323V26.7008C26.7323 24.2416 25.7748 21.9297 24.0357 20.1906C23.8536 20.0088 23.664 19.8374 23.4698 19.6727C24.2236 19.4135 25.0182 19.2781 25.8194 19.2755H25.8418C27.8249 19.2755 29.69 20.0479 31.0936 21.4503C32.4961 22.8528 33.2684 24.7175 33.2684 26.7009V36.1499ZM41.5853 52.1691H39.7514V40.5666C40.43 40.43 41.0536 40.1402 41.5853 39.7352V52.1691ZM41.5853 36.1499C41.5853 37.3403 40.8175 38.3541 39.7514 38.724V25.5628C39.7514 25.071 39.3527 24.6723 38.8609 24.6723C38.369 24.6723 37.9704 25.0711 37.9704 25.5628V52.1691H37.7738H35.0494V26.7008C35.0494 24.2417 34.0918 21.9297 32.3527 20.1906C32.1706 20.0088 31.981 19.8374 31.7868 19.6727C32.5407 19.4134 33.3352 19.278 34.1364 19.2755H34.1589C36.142 19.2755 38.0072 20.0479 39.4106 21.4503C40.8131 22.8528 41.5854 24.7175 41.5854 26.7009V36.1499H41.5853ZM49.9024 52.1691H48.0685V40.5666C48.7472 40.43 49.3707 40.1402 49.9024 39.7352V52.1691ZM49.9024 36.1499C49.9024 37.3403 49.1346 38.3541 48.0685 38.724V25.5628C48.0685 25.071 47.6697 24.6723 47.178 24.6723C46.6862 24.6723 46.2875 25.0711 46.2875 25.5628V52.1691H46.091H43.3666V26.7008C43.3666 24.2417 42.4089 21.9297 40.6698 20.1906C40.4877 20.0088 40.298 19.8374 40.1039 19.6727C40.8578 19.4134 41.6523 19.278 42.4535 19.2755H42.4759C44.459 19.2755 46.3242 20.0479 47.7276 21.4503C49.13 22.8528 49.9024 24.7175 49.9024 26.7009V36.1499Z" fill="white"/>
</svg>
