<svg width="21" height="21" viewBox="0 0 21 21" fill="none" xmlns="http://www.w3.org/2000/svg">
<g clip-path="url(#clip0)">
<path d="M10.4965 3.08643C10.7107 3.08643 10.8844 2.91274 10.8844 2.6985V0.968257C10.8844 0.754009 10.7107 0.580322 10.4965 0.580322C10.2822 0.580322 10.1085 0.754009 10.1085 0.968257V2.6985C10.1086 2.91274 10.2822 3.08643 10.4965 3.08643Z" fill="#35E7DC"/>
<path d="M19.979 13.9077L19.2937 13.2243C19.0499 12.9808 18.725 12.8467 18.3788 12.8467C18.1574 12.8467 17.9449 12.9017 17.7566 13.0049L16.4651 11.7151L16.528 11.6522C17.052 11.1273 17.0518 10.2743 16.528 9.75108C16.3408 9.56357 16.1073 9.43853 15.8527 9.38592C15.8878 9.26492 15.9062 9.13819 15.9062 9.0085C15.9062 8.64814 15.7662 8.31024 15.5128 8.0579C15.3256 7.87039 15.0921 7.74535 14.8376 7.69273C14.8726 7.57174 14.8911 7.44505 14.8911 7.31531C14.8911 6.95492 14.7511 6.61706 14.4973 6.36433C14.3056 6.17289 14.07 6.0517 13.8226 6.00013C13.9549 5.54378 13.8418 5.03035 13.4828 4.67072C13.184 4.37316 12.7785 4.24527 12.3877 4.28672L9.82862 3.80233C9.43833 3.72829 8.95094 3.67934 8.64328 3.95995C8.62387 3.97767 8.60407 3.99805 8.58457 4.02074C8.10754 3.84686 7.55116 3.9504 7.16916 4.33198C6.91574 4.58509 6.77614 4.92284 6.77614 5.283C6.77614 5.41273 6.79451 5.53943 6.82953 5.66046C6.57522 5.71304 6.34198 5.83792 6.15543 6.02482C5.90151 6.2777 5.76149 6.61506 5.76122 6.9748C5.7611 7.10484 5.77955 7.23196 5.81476 7.35329C5.56033 7.40576 5.32694 7.53041 5.13981 7.71731C4.88589 7.97096 4.74606 8.3089 4.74606 8.66887C4.74606 8.94459 4.82838 9.20726 4.98092 9.42913C4.78832 9.49443 4.6119 9.60309 4.46417 9.75066C3.93992 10.2743 3.93972 11.1273 4.46452 11.653L4.52719 11.7154L3.23562 13.0047C2.75562 12.7787 2.16422 12.8633 1.76812 13.2589L1.08239 13.9427C0.838482 14.1863 0.704201 14.5113 0.704163 14.8577C0.704163 15.2042 0.838482 15.5292 1.08239 15.7728L1.93819 16.6276C2.08976 16.779 2.33541 16.7788 2.48679 16.6272C2.63821 16.4757 2.63806 16.23 2.48648 16.0786L1.63068 15.2239C1.53354 15.1269 1.48003 14.9968 1.48003 14.8578C1.48003 14.7187 1.53354 14.5887 1.63045 14.4919L2.31622 13.8081C2.48756 13.6369 2.7498 13.6114 2.94895 13.7305C2.96297 13.7516 2.97919 13.7716 2.99776 13.7902C3.031 13.8235 3.06894 13.8491 3.10923 13.8678L7.04185 17.7946C7.06053 17.8353 7.08619 17.8736 7.11966 17.9071C7.15225 17.9398 7.18942 17.965 7.22887 17.9836C7.31203 18.0776 7.35798 18.1977 7.35798 18.3258C7.35798 18.4649 7.30448 18.5949 7.20733 18.6919L6.52225 19.3762C6.31983 19.5777 5.99056 19.5777 5.78876 19.3768L4.93296 18.5209C4.78146 18.3694 4.53586 18.3694 4.38436 18.5209C4.23286 18.6724 4.23286 18.918 4.38436 19.0695L5.24077 19.926C5.49285 20.1771 5.82389 20.3025 6.15508 20.3025C6.48635 20.3025 6.81778 20.1769 7.07016 19.9256L7.75566 19.2409C7.99957 18.9973 8.13389 18.6723 8.13389 18.3258C8.13389 18.0786 8.06513 17.8424 7.93729 17.6388L9.39087 16.187C9.39242 16.1854 9.39396 16.1838 9.39553 16.1823C9.56198 16.0102 10.0255 16.0424 10.4737 16.0735C10.7922 16.0957 11.1473 16.1203 11.4942 16.0803L13.086 17.6702C12.9829 17.8582 12.9279 18.0705 12.9279 18.2915C12.9279 18.6376 13.0622 18.9624 13.3061 19.206L13.9916 19.8907C14.2354 20.1342 14.5603 20.2683 14.9065 20.2683C15.2527 20.2683 15.5776 20.1342 15.8214 19.8907L19.9793 15.7379C20.2232 15.4943 20.3575 15.1693 20.3575 14.8229C20.3575 14.4764 20.2231 14.1515 19.979 13.9077ZM9.68417 4.56464L11.367 4.88316L10.3597 5.89004C10.2039 5.81515 9.99036 5.67548 9.75608 5.45137C9.4354 5.1446 9.20602 4.79041 9.18514 4.56949C9.1851 4.56938 9.1851 4.56926 9.1851 4.56915C9.1851 4.56911 9.18506 4.56907 9.18506 4.56903C9.18356 4.55316 9.18317 4.54049 9.18337 4.53082C9.2341 4.51849 9.36884 4.50482 9.68417 4.56464ZM7.71741 4.88093C7.91394 4.68459 8.21925 4.66194 8.44132 4.81232C8.56716 5.33997 9.01727 5.8182 9.21977 6.01195C9.36984 6.15555 9.85138 6.58609 10.3374 6.70442C10.4032 6.79868 10.439 6.91105 10.439 7.02961C10.439 7.18234 10.3802 7.32514 10.2732 7.43207C10.1664 7.539 10.0234 7.59786 9.87041 7.59786C9.71737 7.59786 9.57434 7.539 9.4671 7.43157L9.46707 7.43153L9.46687 7.43133L7.71737 5.68499C7.61071 5.57849 7.55197 5.43569 7.55197 5.283C7.55201 5.13027 7.61075 4.98747 7.71741 4.88093ZM6.70372 6.57376C6.81046 6.46687 6.95333 6.40797 7.1061 6.40797C7.25906 6.40797 7.4024 6.46699 7.50983 6.5743L8.91858 7.98024C9.14042 8.20243 9.14042 8.56398 8.91935 8.78539C8.81203 8.89228 8.66851 8.95114 8.51524 8.95114C8.36197 8.95114 8.21844 8.89228 8.11159 8.78585L8.11155 8.78581L7.04281 7.71731C7.04116 7.71565 7.03935 7.71411 7.03765 7.71241L6.7033 7.37822C6.59602 7.27105 6.53697 7.12799 6.53709 6.97537C6.53724 6.82326 6.5961 6.68093 6.70372 6.57376ZM5.68811 8.26626C5.79492 8.15959 5.9381 8.10085 6.09133 8.10085C6.24329 8.10085 6.38524 8.15875 6.49159 8.26356L7.5636 9.33507C7.6705 9.44154 7.72939 9.58418 7.72939 9.73672C7.72939 9.88922 7.6705 10.0319 7.56318 10.1387C7.4564 10.2454 7.31338 10.3041 7.16041 10.3041C7.00722 10.3041 6.86373 10.2452 6.7568 10.1387L6.36818 9.75058C6.3681 9.75047 6.36798 9.75039 6.36791 9.75031L5.68814 9.07136C5.58098 8.96431 5.52197 8.82133 5.52197 8.66879C5.52197 8.51629 5.58098 8.37326 5.68811 8.26626ZM5.01247 10.2996C5.11974 10.1924 5.26311 10.1334 5.41615 10.1334C5.56916 10.1334 5.71249 10.1924 5.81973 10.2995L6.2089 10.6882C6.31583 10.7946 6.37469 10.9373 6.37469 11.0898C6.37469 11.2423 6.31579 11.3849 6.20809 11.4923C6.10135 11.5992 5.95832 11.6581 5.80532 11.6581C5.65228 11.6581 5.50926 11.5992 5.40175 11.4915L5.35302 11.443C5.35237 11.4423 5.35186 11.4416 5.35125 11.441C5.35052 11.4403 5.34975 11.4397 5.34901 11.439L5.01285 11.1041C4.79101 10.8818 4.79082 10.5209 5.01247 10.2996ZM12.9181 14.7085C12.7666 14.5569 12.521 14.5568 12.3695 14.7081L12.0243 15.0529C11.6964 15.3808 11.1021 15.3395 10.5274 15.2997C9.90338 15.2563 9.25806 15.2115 8.84046 15.6402L7.41157 17.0674L3.83834 13.4994L5.10287 12.2372C5.31188 12.3653 5.55305 12.434 5.8054 12.434C6.16591 12.434 6.50396 12.2942 6.75646 12.0413C7.01065 11.7881 7.15067 11.4502 7.15067 11.0898C7.15067 11.0865 7.15044 11.0832 7.15044 11.0798C7.15379 11.0799 7.15714 11.0801 7.16049 11.0801C7.5205 11.0801 7.85828 10.9407 8.11113 10.6882C8.36532 10.435 8.50534 10.0971 8.50534 9.73679C8.50534 9.73344 8.50511 9.73013 8.50511 9.72678C8.5085 9.72678 8.51189 9.72701 8.51532 9.72701C8.87521 9.72701 9.21318 9.58784 9.46772 9.33434C9.73197 9.06967 9.86267 8.72121 9.86016 8.37349C9.86363 8.37353 9.8671 8.37373 9.87056 8.37373C10.2311 8.37369 10.5691 8.23398 10.822 7.98063C11.0754 7.72751 11.215 7.38977 11.215 7.02961C11.215 6.77773 11.1465 6.53694 11.0188 6.32835L12.1271 5.22048C12.2097 5.13824 12.3116 5.08662 12.4183 5.06532C12.4299 5.06409 12.4413 5.06224 12.4526 5.06001C12.6238 5.03639 12.8037 5.08924 12.9346 5.21967C13.1565 5.44189 13.1565 5.80344 12.9354 6.02486L12.5979 6.36102C12.5968 6.36214 12.5956 6.36314 12.5945 6.36425L12.2057 6.75238C12.0541 6.90377 12.0539 7.14941 12.2053 7.30098C12.3568 7.4526 12.6024 7.45271 12.7539 7.30133L13.0928 6.96289C13.0929 6.96282 13.093 6.96274 13.0931 6.96266L13.1443 6.91162C13.3667 6.69121 13.7271 6.69167 13.9494 6.91359C14.0563 7.02006 14.1152 7.1627 14.1152 7.31524C14.1152 7.46774 14.0563 7.61038 13.9485 7.71769L13.609 8.05786C13.609 8.0579 13.609 8.05794 13.6089 8.05802L13.2202 8.44518C13.0684 8.59637 13.0679 8.84201 13.2191 8.99378C13.3703 9.14559 13.6159 9.14605 13.7677 8.9949L14.1582 8.60596C14.2649 8.49903 14.4079 8.44017 14.5609 8.44017C14.714 8.44017 14.857 8.49903 14.9646 8.60673C15.0715 8.71324 15.1303 8.85588 15.1303 9.00842C15.1303 9.16092 15.0715 9.30356 14.9639 9.41065L14.2871 10.0877C14.1357 10.2392 14.1357 10.4849 14.2872 10.6363C14.363 10.712 14.4622 10.7499 14.5615 10.7499C14.6608 10.7499 14.7601 10.712 14.8358 10.6362L15.1675 10.3044C15.1694 10.3026 15.1714 10.301 15.1733 10.2991C15.2801 10.1922 15.4231 10.1333 15.5761 10.1333C15.7291 10.1333 15.8722 10.1922 15.9793 10.2995C16.2009 10.5209 16.2007 10.8818 15.9793 11.1036L15.642 11.4405C15.6419 11.4406 15.6418 11.4407 15.6417 11.4408C15.6415 11.4409 15.6414 11.4411 15.6413 11.4412L15.106 11.9758C14.9545 12.1272 14.9543 12.3729 15.1057 12.5244C15.1815 12.6003 15.2808 12.6382 15.3802 12.6382C15.4794 12.6382 15.5786 12.6004 15.6543 12.5248L15.9162 12.2633L17.171 13.5167L13.5981 17.0852L12.3179 15.8066C12.4072 15.7492 12.4926 15.6817 12.5727 15.6016L12.9177 15.2571C13.0693 15.1057 13.0695 14.8601 12.9181 14.7085ZM19.4309 15.1889L15.2731 19.3417C15.1758 19.4389 15.0456 19.4924 14.9065 19.4924C14.7673 19.4924 14.6371 19.4389 14.5398 19.3417L13.8543 18.657C13.7571 18.56 13.7036 18.4302 13.7036 18.2915C13.7036 18.1528 13.7571 18.023 13.8543 17.926L18.0122 13.7731C18.1095 13.676 18.2396 13.6225 18.3788 13.6225C18.5179 13.6225 18.6481 13.676 18.7457 13.7734L19.431 14.4568C19.5281 14.5538 19.5816 14.6838 19.5816 14.8228C19.5816 14.9619 19.5281 15.0919 19.4309 15.1889Z" fill="#35E7DC"/>
<path d="M5.34519 2.75938C5.42092 2.83495 5.52007 2.8727 5.61922 2.8727C5.7186 2.8727 5.81802 2.83472 5.89379 2.7588C6.04514 2.60715 6.04491 2.36154 5.89325 2.2102L4.47964 0.799404C4.32803 0.648059 4.08239 0.648252 3.93104 0.799944C3.7797 0.951597 3.77993 1.1972 3.93158 1.34855L5.34519 2.75938Z" fill="#35E7DC"/>
<path d="M15.3736 2.87275C15.4728 2.87275 15.5721 2.83492 15.6478 2.75931L17.0603 1.34848C17.2119 1.19709 17.212 0.951451 17.0606 0.799875C16.9092 0.648299 16.6636 0.648144 16.512 0.799566L15.0995 2.2104C14.9479 2.36178 14.9478 2.60742 15.0992 2.759C15.175 2.83485 15.2743 2.87275 15.3736 2.87275Z" fill="#35E7DC"/>
<path d="M3.08956 17.2673C2.93937 17.4201 2.94145 17.6658 3.09426 17.8159L3.09538 17.817C3.17076 17.8911 3.26864 17.928 3.36648 17.928C3.4669 17.928 3.56732 17.8892 3.6434 17.8118C3.79359 17.659 3.79093 17.4128 3.63816 17.2626C3.48543 17.1125 3.23983 17.1146 3.08956 17.2673Z" fill="#35E7DC"/>
<path d="M13.8669 14.1496C13.9259 14.1496 13.9858 14.1362 14.042 14.1079C14.2332 14.0114 14.3101 13.7781 14.2136 13.5868C14.1171 13.3955 13.8838 13.3186 13.6926 13.4151L13.6904 13.4162C13.4991 13.5127 13.4234 13.7454 13.5198 13.9367C13.5879 14.0718 13.7249 14.1496 13.8669 14.1496Z" fill="#35E7DC"/>
</g>
<defs>
<clipPath id="clip0">
<rect width="19.7222" height="19.7222" fill="white" transform="translate(0.669739 0.580322)"/>
</clipPath>
</defs>
</svg>
