<svg width="60" height="60" viewBox="0 0 60 60" fill="none" xmlns="http://www.w3.org/2000/svg">
<g clip-path="url(#clip0)">
<path d="M27.198 16.5559C27.3573 16.6908 27.5587 16.7642 27.7661 16.7642C27.7909 16.7642 27.816 16.7631 27.8409 16.761C28.0739 16.7411 28.2894 16.6292 28.4396 16.4499L34.0471 9.75917C34.3589 9.3871 34.31 8.83281 33.938 8.52109C33.5661 8.20914 33.0117 8.258 32.6999 8.63019L27.6598 14.6437L25.3542 12.6911C24.9839 12.3773 24.4291 12.4233 24.1155 12.7937C23.8018 13.1642 23.8479 13.7188 24.2183 14.0324L27.198 16.5559Z" fill="white"/>
<path d="M29.4219 24.583C32.4218 24.583 35.4214 23.4416 37.7052 21.1588C39.9165 18.9485 41.1343 16.0088 41.1343 12.8815C41.1343 9.7542 39.9166 6.81384 37.7052 4.60158C35.3073 2.20462 31.9944 0.964077 28.6174 1.20056C25.2255 1.43716 22.1095 3.12431 20.0686 5.82947C19.7763 6.21701 19.8534 6.76802 20.2409 7.06041C20.6286 7.35291 21.1795 7.27568 21.4719 6.88814C23.2064 4.58915 25.8554 3.15525 28.7399 2.95415C31.609 2.75458 34.4246 3.80763 36.4623 5.84458C38.3416 7.72451 39.3765 10.2236 39.3765 12.8815C39.3765 15.5392 38.3416 18.0374 36.4627 19.9156C32.5803 23.7963 26.2638 23.7961 22.3815 19.9156C19.8368 17.3719 18.8638 13.6378 19.8423 10.1703C19.9741 9.70322 19.7024 9.21759 19.2352 9.08576C18.7687 8.95404 18.2824 9.2258 18.1506 9.69291C16.9993 13.7722 18.1444 18.1657 21.1389 21.1588C23.4225 23.4417 26.4223 24.583 29.4219 24.583Z" fill="white"/>
<path d="M56.4258 44.7583C56.134 44.5919 55.8328 44.4209 55.5234 44.2357L53.2254 42.8576C54.2941 41.722 55.0945 40.3427 55.4098 38.9611C55.5059 38.5439 55.5551 38.1337 55.5551 37.7435V31.9263C55.5551 29.2802 53.5641 26.8919 50.4809 25.8431C47.7855 24.9267 45.1102 25.3521 43.6699 26.8896C42.1934 27.1498 40.1227 28.3205 40.193 32.8544C40.1941 32.8943 40.1941 32.9271 40.1941 32.9529V37.7435C40.1941 38.1337 40.2434 38.5439 40.3395 38.9576C40.6535 40.3404 41.4527 41.722 42.5238 42.8587L40.2645 44.2134C40.248 44.2216 40.2316 44.2322 40.2152 44.2416C39.9105 44.4244 39.6117 44.5943 39.3234 44.7583C38.4598 45.2494 37.6184 45.7263 36.9691 46.3943L35.3496 45.4228C36.4195 44.2861 37.2199 42.9068 37.5352 41.5263C37.6289 41.115 37.677 40.7048 37.677 40.3076V37.7224C37.677 37.7218 37.6771 37.7212 37.6771 37.7207V34.4899C37.6771 31.8449 35.687 29.458 32.607 28.4092C29.9121 27.4914 27.2355 27.9159 25.7953 29.4528C24.3178 29.7123 22.2465 30.8829 22.3182 35.4164C22.3189 35.4573 22.3195 35.4908 22.3195 35.516V36.6314V38.2188V40.3076C22.3195 40.6861 22.3664 41.0939 22.4613 41.5263C22.7766 42.9068 23.577 44.2861 24.648 45.4228L23.0309 46.3943C22.3805 45.7263 21.5391 45.2482 20.6742 44.7572C20.3824 44.5908 20.0812 44.4209 19.773 44.2357L19.7496 44.2216C19.7473 44.2203 19.745 44.2188 19.7427 44.2175L17.4745 42.8586C18.5446 41.7225 19.3447 40.3432 19.66 38.9612C19.7543 38.5529 19.8021 38.1434 19.8021 37.744V35.154V34.1678V31.9266C19.8021 29.281 17.8118 26.8937 14.7314 25.8445C12.036 24.9264 9.35836 25.3514 7.91707 26.8895C6.44062 27.1491 4.37145 28.3198 4.44328 32.8528C4.44398 32.8938 4.44457 32.9273 4.44457 32.9525V34.0649V35.6521V37.744C4.44457 38.1434 4.49238 38.5528 4.58613 38.9589C4.90172 40.342 5.70199 41.7218 6.7718 42.858L4.4727 44.2356C4.16496 44.4201 3.86414 44.5911 3.57305 44.7565C1.73566 45.8006 0 46.7869 0 49.6612V54.8245C0 54.9996 0 55.5324 0.384727 55.9104C0.706641 56.2265 1.09992 56.261 1.39852 56.261C1.44281 56.261 1.485 56.2603 1.52449 56.2596C1.56633 56.2589 1.61016 56.258 1.65609 56.258H10.3252C10.3257 56.258 10.3263 56.2581 10.3269 56.2581C10.3275 56.2581 10.3281 56.258 10.3287 56.258H12.1225H12.1229H13.9114C13.9119 56.258 13.9124 56.2581 13.9129 56.2581C13.9133 56.2581 13.9138 56.258 13.9143 56.258H17.8744V57.3876C17.8744 57.5634 17.8744 58.0978 18.2611 58.4763C18.5834 58.7927 18.9759 58.8279 19.2748 58.8279C19.3193 58.8279 19.3615 58.8267 19.4013 58.8267C19.4423 58.8255 19.4857 58.8244 19.5314 58.8244H20.5439C21.0291 58.8244 21.4228 58.4306 21.4228 57.9455C21.4228 57.4603 21.0291 57.0665 20.5439 57.0665H19.6322V56.258V54.5001V52.2244C19.6322 50.4466 20.408 49.9357 22.3193 48.8517C22.3486 48.8353 22.3779 48.8177 22.4084 48.8013C22.5302 48.7322 22.6533 48.6607 22.7798 48.588L24.2459 49.5373L25.7564 50.5158C25.7693 50.5228 25.7822 50.531 25.7951 50.538C25.9005 50.599 25.9931 50.6634 26.0834 50.7244C26.2673 50.8498 26.6189 51.09 27.0443 51.09C27.2201 51.09 27.4088 51.049 27.6033 50.9423L27.724 51.4158L26.0107 55.1271C26.0095 55.1294 26.0084 55.133 26.0072 55.1353C25.8607 55.4376 25.8841 55.7716 26.0658 56.047L26.6646 57.0665H24.6033C24.1181 57.0665 23.7244 57.4603 23.7244 57.9455C23.7244 58.4306 24.1181 58.8244 24.6033 58.8244H28.1998H28.2021H40.4658C40.5115 58.8244 40.5548 58.8255 40.5959 58.8267C40.6357 58.8267 40.6779 58.8279 40.7224 58.8279C41.0224 58.8279 41.4162 58.7927 41.7396 58.4763C42.1252 58.0978 42.1252 57.5634 42.1252 57.3876V56.258H49.6627H49.665H58.3439C58.3884 56.258 58.433 56.2591 58.474 56.2591C58.5138 56.2603 58.556 56.2615 58.6005 56.2615C58.8994 56.2615 59.292 56.2263 59.6142 55.9099C59.9998 55.5314 59.9998 54.9994 59.9998 54.8248V49.6615C60 46.788 58.2645 45.8013 56.4258 44.7583ZM17.6595 45.0177L15.425 46.4627C15.3328 46.5173 15.2508 46.5703 15.178 46.6191L14.6977 46.1102C14.6896 46.101 14.6808 46.0923 14.6723 46.0834L13.8716 45.2352C13.958 45.2062 14.0454 45.1753 14.1343 45.142C14.8143 44.8888 15.4745 44.5237 16.0903 44.0775L17.6595 45.0177ZM8.44348 28.5916C8.68816 28.5701 8.91269 28.4471 9.06258 28.2526C9.95473 27.095 12.0527 26.7891 14.1648 27.5084C15.9544 28.118 18.0443 29.6408 18.0443 31.9266V34.1679V34.2752H17.6742C16.808 34.2752 16.2485 33.7924 15.4075 33.0047C14.4607 32.118 13.2825 31.0145 11.2364 31.0145H9.66187C7.74984 31.0145 7.43051 32.5683 7.23984 33.4966C7.02047 34.5641 6.91652 34.7734 6.21703 34.7734H6.20238V34.0651V32.9528C6.20238 32.9205 6.2018 32.8776 6.20086 32.8251C6.15867 30.1506 6.91301 28.7263 8.44348 28.5916ZM6.29953 38.5656C6.23508 38.2868 6.2025 38.0103 6.2025 37.744V36.531H6.21715C8.4109 36.531 8.76914 34.7871 8.96168 33.8503C9.18328 32.7722 9.27516 32.7722 9.66199 32.7722H11.2366C12.588 32.7722 13.3379 33.4744 14.2061 34.2875C15.0796 35.1056 16.0696 36.0329 17.6745 36.0329H18.0445V37.744C18.0445 38.0103 18.012 38.2868 17.9469 38.5679C17.481 40.6105 15.5782 42.7287 13.5198 43.4953C12.9918 43.6929 12.5481 43.7849 12.1236 43.7849C11.6992 43.7849 11.2555 43.6929 10.7263 43.4948C8.66883 42.7287 6.76594 40.6106 6.29953 38.5656ZM13.0651 46.9417L12.7796 48.0583H11.4611L11.1775 46.9461L12.1234 45.9442L13.0651 46.9417ZM8.15637 44.0777C8.77195 44.5239 9.43184 44.8887 10.1113 45.1418C10.2006 45.1752 10.2885 45.2062 10.3752 45.2354L9.06914 46.6188C8.99602 46.5701 8.91352 46.517 8.82082 46.4624L6.58734 45.0179L8.15637 44.0777ZM8.17945 53.4662L8.78848 54.5001H1.75781V49.6612C1.75781 47.8808 2.53254 47.3696 4.44164 46.2848C4.59246 46.1991 4.74598 46.1119 4.90254 46.0215L7.88227 47.9487C7.89375 47.956 7.90523 47.9631 7.91695 47.97C8.0223 48.0314 8.11512 48.095 8.20488 48.1566C8.40492 48.2937 8.75215 48.5316 9.17133 48.5316C9.34652 48.5316 9.53438 48.4894 9.72926 48.3814L9.84926 48.8522L8.13668 52.5628C7.98961 52.8561 8.0059 53.1889 8.17945 53.4662ZM13.4115 54.5001H12.1239C12.1237 54.5001 12.1236 54.5001 12.1234 54.5001H10.8286L9.90352 52.9296L11.3405 49.8163H12.8999L14.3368 52.9296L13.4115 54.5001ZM17.8746 52.2244V54.5001H15.4516L16.0608 53.4663C16.2341 53.1895 16.2505 52.8571 16.1037 52.5634L14.391 48.8526L14.5121 48.3786C14.709 48.4888 14.8989 48.5319 15.0759 48.5319C15.4968 48.5319 15.8455 48.2924 16.0462 48.1544C16.1353 48.0934 16.2273 48.0301 16.3315 47.9691C16.3426 47.9626 16.3535 47.9558 16.3643 47.9489L19.3441 46.0217C19.5008 46.1121 19.6542 46.1994 19.8046 46.2855C20.4948 46.6781 21.0362 46.9945 21.4475 47.325C19.6102 48.3677 17.8746 49.3544 17.8746 52.2244ZM53.4094 45.0185L51.1793 46.4623C51.0855 46.5173 51.0023 46.5712 50.9285 46.6205L50.448 46.1107C50.4387 46.1001 50.427 46.0884 50.4164 46.0779L49.6219 45.2353C49.7086 45.2072 49.7953 45.1755 49.8844 45.1427C50.5641 44.8884 51.2238 44.524 51.8402 44.0775L53.4094 45.0185ZM44.1961 28.5912C44.441 28.5701 44.666 28.447 44.816 28.2525C45.7066 27.0959 47.8031 26.7888 49.9148 27.5072C51.7055 28.1177 53.7973 29.64 53.7973 31.9263V34.2748H53.4246C52.5586 34.2748 51.9996 33.7931 51.1594 33.0056C50.2125 32.1185 49.0348 31.0146 46.9863 31.0146H45.4113C43.4988 31.0146 43.1801 32.5685 42.9902 33.4978C42.7711 34.5642 42.668 34.7728 41.9707 34.7728H41.952V32.9529C41.952 32.9212 41.952 32.8779 41.9508 32.8263C41.9098 30.1509 42.6645 28.7259 44.1961 28.5912ZM42.0527 38.5662C41.9859 38.2779 41.952 38.0013 41.952 37.7435V36.5306H41.9707C44.1621 36.5306 44.5195 34.7869 44.7117 33.8505C44.9332 32.7724 45.0246 32.7724 45.4113 32.7724H46.9863C48.3398 32.7724 49.0898 33.4744 49.957 34.2876C50.8301 35.1056 51.8191 36.0326 53.4246 36.0326H53.7973V37.7435C53.7973 38.0013 53.7633 38.2779 53.6965 38.5685C53.2313 40.6111 51.3281 42.7287 49.268 43.4962C48.7441 43.6931 48.3012 43.7845 47.8734 43.7845C47.448 43.7845 47.0062 43.6931 46.4789 43.4951C44.4188 42.7275 42.5156 40.6099 42.0527 38.5662ZM48.8156 46.9427L48.532 48.0583H47.2113L46.9277 46.9462L47.8734 45.9443L48.8156 46.9427ZM43.9078 44.0787C44.523 44.524 45.1828 44.8884 45.8625 45.1416C45.9516 45.1744 46.0395 45.206 46.1262 45.2353L44.8195 46.6181C44.7457 46.5701 44.6637 46.5173 44.5711 46.4623L42.3398 45.0173L43.9078 44.0787ZM35.5359 47.5837L33.3059 49.0287C33.2121 49.0826 33.1289 49.1365 33.0551 49.1845L31.7473 47.8017C31.834 47.7724 31.9207 47.7419 32.0098 47.7091C32.6906 47.4548 33.3504 47.0892 33.9668 46.6416L35.5359 47.5837ZM26.3215 31.1551C26.5663 31.1335 26.7909 31.0106 26.9408 30.816C27.8319 29.6596 29.9285 29.3542 32.0404 30.0732C33.8297 30.6826 35.9193 32.2049 35.9193 34.49V36.7294C35.9193 36.73 35.9191 36.7305 35.9191 36.731V36.8419H35.5492C34.6834 36.8419 34.1246 36.3594 33.2845 35.5721C32.3379 34.6851 31.1598 33.5811 29.1115 33.5811H27.537C25.6243 33.5811 25.3055 35.1356 25.115 36.0643C24.8962 37.1308 24.7927 37.3399 24.0955 37.3399H24.0775V36.6314V35.516C24.0775 35.4838 24.0769 35.4409 24.0759 35.3886C24.0335 32.7141 24.789 31.2898 26.3215 31.1551ZM24.177 41.1419C24.1113 40.8408 24.0773 40.5607 24.0773 40.3076V39.0977H24.0954C26.2873 39.0977 26.6448 37.3542 26.837 36.4174C27.0581 35.3388 27.1501 35.3388 27.537 35.3388H29.1115C30.465 35.3388 31.2146 36.0412 32.0827 36.8546C32.9555 37.6725 33.9448 38.5996 35.5493 38.5996H35.9193V40.3075C35.9193 40.5735 35.8864 40.8512 35.822 41.1336C35.3556 43.1739 33.4525 45.2926 31.397 46.0614C30.8626 46.2594 30.4185 46.352 29.9989 46.352C29.5818 46.352 29.1364 46.2594 28.6021 46.0614C26.5441 45.2927 24.641 43.174 24.177 41.1419ZM30.941 49.5068L30.6574 50.6224H29.3355L29.0531 49.5103L29.9988 48.5095L30.941 49.5068ZM26.9426 49.1833C26.8699 49.1353 26.7879 49.0826 26.6941 49.0287L24.4641 47.5837L26.0309 46.6416C26.6484 47.0892 27.3094 47.4548 27.9902 47.7103C28.0781 47.7419 28.1648 47.7724 28.2504 47.8005L26.9426 49.1833ZM31.2867 57.0665H28.7039L27.7793 55.4927L29.2148 52.3802H30.7781L32.2125 55.4951L31.2867 57.0665ZM40.3676 57.0665H33.327L33.9363 56.033C34.1063 55.7587 34.125 55.4283 33.982 55.1353C33.9809 55.133 33.9797 55.1294 33.9785 55.1271L32.2687 51.4158L32.3895 50.9447C32.5852 51.0537 32.775 51.097 32.9508 51.097C33.3691 51.097 33.716 50.8603 33.9164 50.7244C34.0066 50.6623 34.0992 50.599 34.2047 50.538C34.2176 50.531 34.2305 50.5228 34.2434 50.5158L37.2199 48.588C37.3441 48.6607 37.4684 48.731 37.5891 48.8001C37.6207 48.8177 37.6523 48.8365 37.684 48.8541C39.593 49.938 40.3676 50.449 40.3676 52.2244V57.0665ZM43.9406 53.4806L44.5406 54.5001H42.1254V52.2244C42.1254 49.3544 40.3898 48.3689 38.5523 47.3248C38.5523 47.3248 38.5512 47.3248 38.5512 47.3236C38.9613 46.9943 39.5027 46.6767 40.1918 46.2865C40.343 46.1998 40.4977 46.113 40.6547 46.0216L43.6324 47.9482C43.643 47.9564 43.6547 47.9634 43.6664 47.9705C43.7719 48.0314 43.8645 48.0947 43.9547 48.1556C44.1398 48.2822 44.4937 48.5248 44.9227 48.5248C45.0973 48.5248 45.2848 48.4837 45.4781 48.3783L45.5988 48.8517L43.8867 52.563C43.8855 52.5642 43.8855 52.5642 43.8855 52.5654C43.7355 52.8677 43.7566 53.2029 43.9406 53.4806ZM49.1613 54.5001H46.5797L45.6551 52.9275L47.0906 49.8162H48.6527L50.0883 52.9263L49.1613 54.5001ZM58.2422 54.5001H51.2016L51.8098 53.4666C51.9738 53.2064 51.9996 52.9005 51.8801 52.6169C51.873 52.5994 51.8648 52.5806 51.8566 52.563L50.1434 48.8517L50.2641 48.3794C50.4598 48.4884 50.6496 48.5318 50.8266 48.5318C51.2461 48.5318 51.5953 48.2927 51.7957 48.1556C51.8848 48.0947 51.9773 48.0314 52.0828 47.9705C52.0945 47.9634 52.1062 47.9564 52.118 47.9482L55.0945 46.0216C55.2516 46.113 55.4062 46.1998 55.5574 46.2865C57.4676 47.3705 58.2422 47.8814 58.2422 49.6615V54.5001Z" fill="white"/>
</g>
<defs>
<clipPath id="clip0">
<rect width="60" height="60" fill="white"/>
</clipPath>
</defs>
</svg>
