<svg width="60" height="60" viewBox="0 0 60 60" fill="none" xmlns="http://www.w3.org/2000/svg">
<g clip-path="url(#clip0)">
<path d="M36.9196 42.3853H33.6305C33.1451 42.3853 32.7516 42.7788 32.7516 43.2642C32.7516 43.7497 33.1451 44.1431 33.6305 44.1431H36.9196C37.405 44.1431 37.7985 43.7497 37.7985 43.2642C37.7985 42.7788 37.405 42.3853 36.9196 42.3853Z" fill="white"/>
<path d="M56.2793 32.9759L51.4932 31.1299L49.053 28.6897C48.8963 28.533 48.6944 28.4481 48.4882 28.4349V26.4932C49.6382 25.267 50.4569 23.7141 50.7873 21.9647C50.9923 21.974 51.1994 21.9575 51.4037 21.9157C52.5731 21.6763 53.4219 20.5913 53.4219 19.336V18.6951C53.4219 17.9689 53.1274 17.3023 52.6479 16.8257C53.424 12.6046 52.7847 9.16464 50.7909 6.86225C48.8623 4.63533 45.7552 3.57091 41.8059 3.78454C38.1571 3.98177 35.8016 5.6606 35.0554 6.27478C34.6468 6.3233 33.951 6.46674 33.2467 6.88932C32.2705 7.47502 31.107 8.70538 31.107 11.2405C31.107 13.4521 31.4604 15.2985 31.7163 16.346C30.8585 16.7639 30.2846 17.6696 30.2846 18.7049V19.3358C30.2846 20.5912 31.1334 21.6762 32.3029 21.9156C32.5071 21.9575 32.7143 21.9739 32.9193 21.9646C33.2496 23.714 34.0684 25.2668 35.2184 26.4931V28.4348C35.0121 28.448 34.8101 28.5329 34.6535 28.6896L32.2133 31.1298L27.4273 32.9758C27.0132 33.1354 26.6177 33.3425 26.2519 33.5911C25.8504 33.8639 25.7461 34.4104 26.0188 34.8119C26.1888 35.0622 26.4653 35.197 26.7465 35.197C26.9165 35.197 27.0883 35.1477 27.2396 35.045C27.4948 34.8717 27.7707 34.7273 28.0598 34.6157L32.5016 32.9025L35.8977 37.9967C36.3187 38.6283 36.9934 39.0334 37.7487 39.1081C37.8327 39.1165 37.9167 39.1206 38.0002 39.1206C38.4374 39.1206 38.8616 39.0056 39.2371 38.7931L38.5083 55.3246C38.4869 55.8095 38.8627 56.22 39.3477 56.2414C39.3609 56.242 39.374 56.2422 39.3871 56.2422C39.8547 56.2422 40.2437 55.8736 40.2645 55.402L40.9409 40.0573H42.7655L43.4419 55.402C43.4627 55.8738 43.8517 56.2422 44.3193 56.2422C44.3324 56.2422 44.3456 56.242 44.3587 56.2414C44.8436 56.22 45.2194 55.8095 45.1981 55.3246L44.4693 38.7931C44.8448 39.0056 45.2689 39.1206 45.7062 39.1206C45.7897 39.1206 45.8737 39.1165 45.9577 39.1081C46.713 39.0334 47.3876 38.6283 47.8087 37.9967L51.2048 32.9025L55.6466 34.6157C56.2695 34.856 56.8058 35.2393 57.2274 35.7176L54.1886 38.7564C53.0907 39.8543 52.4861 41.314 52.4861 42.8665V55.3634C52.4861 55.8488 52.8797 56.2423 53.365 56.2423C53.8504 56.2423 54.244 55.8488 54.244 55.3634V42.8665C54.244 41.7836 54.6657 40.7652 55.4315 39.9994L58.0985 37.3324C58.2056 37.7253 58.2556 38.1384 58.2388 38.5608L57.558 55.3278C57.5383 55.8128 57.9156 56.2219 58.4005 56.2417C58.4127 56.2422 58.4247 56.2424 58.4368 56.2424C58.9057 56.2424 59.2952 55.872 59.3143 55.3993L59.9953 38.6318C60.095 36.1446 58.6017 33.8717 56.2793 32.9759ZM34.6398 21.6023C34.4848 20.7584 33.7034 20.145 32.86 20.2075C32.7933 20.2123 32.7246 20.2076 32.6555 20.1935C32.306 20.1221 32.0425 19.7533 32.0425 19.336V18.7048C32.0425 18.2971 32.3149 17.9298 32.6626 17.8688C32.9561 17.8172 33.2371 17.9249 33.4149 18.1568C33.5762 18.3672 33.7915 18.5176 34.0372 18.5917C34.3972 18.7005 34.7942 18.6366 35.0993 18.4212C35.6489 18.0332 36.1338 17.5592 36.5406 17.0121C36.8303 16.6226 36.7492 16.072 36.3598 15.7825C35.9701 15.4928 35.4197 15.5738 35.13 15.9633C34.9272 16.2361 34.6979 16.4837 34.4456 16.7029C34.167 16.4645 33.8414 16.2922 33.4925 16.1939C33.2667 15.3288 32.8648 13.4755 32.8648 11.2403C32.8648 9.89413 33.2797 8.94831 34.0981 8.42917C34.7366 8.02405 35.4124 8.00788 35.412 8.00776C35.6366 8.00776 35.8553 7.91928 36.0184 7.76495C36.0399 7.74479 38.2005 5.7397 41.9005 5.53966C45.2875 5.35685 47.9022 6.21185 49.4619 8.0128C51.0338 9.82804 51.5573 12.6149 50.9894 16.103C50.754 16.0947 50.4963 16.1125 50.2398 16.1553L49.4141 14.1722C49.2455 13.7677 48.8042 13.5492 48.3802 13.6597C48.2985 13.6811 40.182 15.7386 36.7787 11.5016C36.4749 11.1232 35.9217 11.0627 35.5431 11.3667C35.1647 11.6707 35.1042 12.2238 35.4083 12.6023C38.8837 16.9292 45.7795 15.9879 48.0749 15.5289L48.7135 17.0623C48.9881 17.7215 49.6905 18.0815 50.3828 17.9182C50.667 17.8513 50.9386 17.8498 51.0405 17.8699C51.3959 17.9407 51.6639 18.2952 51.6639 18.6948V19.3358C51.6639 19.7533 51.4004 20.1219 51.0509 20.1934C50.9819 20.2076 50.9129 20.2123 50.8464 20.2074C50.0032 20.146 49.2217 20.7582 49.0666 21.6023C48.4272 25.0832 45.3936 27.6098 41.8532 27.6098C38.3128 27.6098 35.2792 25.0832 34.6398 21.6023ZM38.5388 37.1386C38.3159 37.3615 38.0568 37.3724 37.922 37.359C37.7874 37.3458 37.5353 37.2841 37.3605 37.0219L33.9392 31.89L35.3151 30.5141L40.5674 35.1099L38.5388 37.1386ZM41.0184 38.2995L41.0716 37.0916L41.8531 36.3101L42.6346 37.0916L42.6878 38.2995H41.0184ZM41.8532 33.8991L36.9762 29.6317V27.9496C38.3942 28.8514 40.0718 29.3676 41.8532 29.3676C43.6346 29.3676 45.3124 28.8514 46.7303 27.9496V29.6317L41.8532 33.8991ZM46.3462 37.0219C46.1712 37.2842 45.9192 37.3458 45.7846 37.359C45.6497 37.3724 45.3906 37.3615 45.1677 37.1385L43.1391 35.1098L48.3915 30.5139L49.7674 31.8898L46.3462 37.0219Z" fill="white"/>
<path d="M27.8726 37.5821L23.5809 35.7089L21.2349 33.3629C21.0778 33.2056 20.8757 33.1212 20.6701 33.1081V31.7254C22.675 30.4079 24.1422 28.3124 24.6137 25.8155C24.8445 25.8258 25.0776 25.8037 25.3073 25.7494C26.432 25.4833 27.2482 24.4055 27.2482 23.1867V22.546C27.2482 21.6556 26.8064 20.8546 26.1219 20.3847C26.3232 19.5871 26.4259 18.7711 26.4259 17.9497C26.4259 14.3085 24.4576 11.1013 21.4907 9.25977C21.4591 6.22074 18.8652 3.75745 15.6796 3.75745C12.4941 3.75745 9.90016 6.22074 9.86851 9.25977C6.90178 11.1013 4.9335 14.3086 4.9335 17.9497C4.9335 18.7686 5.03545 19.5823 5.23561 20.3776C4.55146 20.8452 4.11119 21.6499 4.11119 22.5556V23.1867C4.11119 24.4055 4.9274 25.4833 6.05205 25.7494C6.28174 25.8038 6.51471 25.8258 6.74569 25.8155C7.21714 28.3124 8.68445 30.4079 10.6894 31.7254V33.1081C10.4838 33.1212 10.2817 33.2056 10.1246 33.3629L7.77858 35.7089L3.48704 37.5821C1.30348 38.5353 -0.0957433 40.775 0.00515557 43.1555L0.524181 55.4008C0.54422 55.873 0.933401 56.2425 1.40168 56.2425C1.41422 56.2425 1.42688 56.2423 1.43954 56.2417C1.92458 56.2212 2.30098 55.8114 2.28048 55.3264L1.76133 43.0809C1.72794 42.2919 1.93301 41.5263 2.31856 40.8674L4.62541 43.6356C5.35443 44.5104 5.7558 45.6192 5.7558 46.7578V55.3636C5.7558 55.849 6.14932 56.2425 6.63471 56.2425C7.12011 56.2425 7.51362 55.849 7.51362 55.3636V46.7578C7.51362 45.2088 6.96741 43.7004 5.97576 42.5103L3.52337 39.5674C3.73185 39.4237 3.95345 39.2965 4.19029 39.1931L7.93046 37.5604L10.5735 41.8506C10.8345 42.2742 11.266 42.5614 11.7575 42.6388C11.8458 42.6527 11.9344 42.6595 12.0227 42.6595C12.4245 42.6595 12.8159 42.5171 13.1262 42.2523L14.8011 40.8232V55.3635C14.8011 55.8489 15.1946 56.2424 15.68 56.2424C16.1654 56.2424 16.5589 55.8489 16.5589 55.3635V40.8234L18.2336 42.2525C18.5439 42.5174 18.9353 42.6598 19.3372 42.6598C19.4253 42.6598 19.514 42.6528 19.6024 42.639C20.0939 42.5617 20.5254 42.2744 20.7863 41.8508L23.4294 37.5606L27.1696 39.1932C27.4063 39.2966 27.628 39.4238 27.8365 39.5675L25.3841 42.5105C24.3924 43.7004 23.8462 45.2089 23.8462 46.7579V55.3637C23.8462 55.8491 24.2397 56.2427 24.7251 56.2427C25.2105 56.2427 25.604 55.8491 25.604 55.3637V46.7579C25.604 45.6193 26.0055 44.5105 26.7344 43.6357L29.0413 40.8675C29.4268 41.5264 29.6319 42.292 29.5985 43.081L29.0795 55.3265C29.059 55.8114 29.4354 56.2212 29.9204 56.2418C29.9331 56.2424 29.9456 56.2427 29.9583 56.2427C30.4266 56.2427 30.8157 55.8733 30.8358 55.4009L31.3548 43.1556C31.4556 40.7751 30.0562 38.5353 27.8726 37.5821ZM15.6799 5.51527C17.5497 5.51527 19.1273 6.70812 19.5938 8.32438C18.3805 7.86641 17.0602 7.61457 15.6799 7.61457C14.2995 7.61457 12.9793 7.86641 11.7659 8.32438C12.2324 6.70812 13.8099 5.51527 15.6799 5.51527ZM8.46636 25.4533C8.31144 24.6092 7.52874 23.996 6.68663 24.0584C6.61198 24.0637 6.53487 24.0573 6.45706 24.0388C6.1219 23.9595 5.86912 23.5931 5.86912 23.1867V22.5556C5.86912 22.1479 6.14159 21.7806 6.48928 21.7195C6.78272 21.668 7.06362 21.7758 7.24128 22.0075C7.40265 22.2179 7.61792 22.3684 7.8639 22.4427C8.22378 22.5515 8.62093 22.4876 8.92585 22.2721C9.46715 21.8901 9.94574 21.4244 10.3484 20.8881C10.6398 20.5 10.5614 19.949 10.1733 19.6576C9.78508 19.3662 9.23418 19.4446 8.94273 19.8327C8.74339 20.0981 8.51898 20.3394 8.27218 20.5538C7.89612 20.2322 7.43499 20.0309 6.94585 19.9698C6.77745 19.3078 6.69131 18.6308 6.69131 17.9498C6.69131 13.2204 10.7235 9.37251 15.6799 9.37251C20.6361 9.37251 24.6683 13.2203 24.6683 17.9498C24.6683 18.6295 24.5826 19.3051 24.4148 19.9659C24.1835 19.9843 23.9484 20.0222 23.7308 20.0787L23.0701 19.5354C22.7381 19.2624 22.3202 19.1257 21.8973 19.1509C20.6054 19.2272 13.9892 19.4019 10.5947 15.3395C10.2835 14.9671 9.7293 14.9174 9.35676 15.2286C8.98421 15.5399 8.93464 16.0942 9.2459 16.4666C10.92 18.4702 13.3755 19.825 16.5439 20.4934C18.9698 21.0052 21.1263 20.9555 21.9712 20.9073L23.002 21.7549C23.2857 21.9883 23.6836 22.0212 24.0013 21.8363C24.1503 21.7551 24.6495 21.6775 24.8674 21.721C25.2228 21.7916 25.4907 22.1462 25.4907 22.546V23.1867C25.4907 23.5933 25.2379 23.9596 24.9028 24.0388C24.8251 24.0572 24.7479 24.0639 24.6732 24.0583C23.8316 23.9971 23.0484 24.6092 22.8934 25.4532C22.254 28.9342 19.2203 31.4608 15.68 31.4608C12.1395 31.4608 9.10574 28.9342 8.46636 25.4533ZM12.0354 40.8724L9.39191 36.5814L10.7461 35.2272L14.3858 38.8668L12.0354 40.8724ZM15.6799 37.6749L12.4474 34.4424V32.6241C13.4565 33.0083 14.5469 33.2186 15.6799 33.2186C16.8128 33.2186 17.9033 33.0083 18.9124 32.6242V34.4424L15.6799 37.6749ZM19.3243 40.8724L16.974 38.8668L20.6136 35.2272L21.9678 36.5814L19.3243 40.8724Z" fill="white"/>
<path d="M12.3908 46.2618H9.92395C9.43856 46.2618 9.04504 46.6554 9.04504 47.1408C9.04504 47.6261 9.43856 48.0197 9.92395 48.0197H12.3908C12.8762 48.0197 13.2697 47.6261 13.2697 47.1408C13.2697 46.6554 12.8762 46.2618 12.3908 46.2618Z" fill="white"/>
</g>
<defs>
<clipPath id="clip0">
<rect width="60" height="60" fill="white"/>
</clipPath>
</defs>
</svg>
