<svg width="20" height="20" viewBox="0 0 20 20" fill="none" xmlns="http://www.w3.org/2000/svg">
<path d="M9.90748 5.49054C9.44698 5.49054 8.99683 5.62709 8.61394 5.88293C8.23105 6.13877 7.93262 6.5024 7.7564 6.92785C7.58017 7.35329 7.53406 7.82144 7.6239 8.27309C7.71374 8.72474 7.93549 9.13961 8.26111 9.46523C8.58673 9.79085 9.0016 10.0126 9.45325 10.1024C9.9049 10.1923 10.373 10.1462 10.7985 9.96994C11.2239 9.79372 11.5876 9.49529 11.8434 9.1124C12.0992 8.72951 12.2358 8.27935 12.2358 7.81886C12.2351 7.20156 11.9896 6.60976 11.5531 6.17326C11.1166 5.73677 10.5248 5.49124 9.90748 5.49054ZM9.90748 8.98302C9.67723 8.98302 9.45215 8.91474 9.26071 8.78682C9.06926 8.6589 8.92005 8.47708 8.83194 8.26436C8.74383 8.05164 8.72077 7.81757 8.76569 7.59174C8.81061 7.36592 8.92149 7.15848 9.0843 6.99567C9.24711 6.83286 9.45454 6.72199 9.68037 6.67707C9.90619 6.63215 10.1403 6.6552 10.353 6.74331C10.5657 6.83143 10.7475 6.98064 10.8754 7.17209C11.0034 7.36353 11.0716 7.58861 11.0716 7.81886C11.0713 8.1275 10.9485 8.4234 10.7303 8.64165C10.512 8.85989 10.2161 8.98266 9.90748 8.98302Z" fill="#35E7DC"/>
<path d="M14.3816 3.3413C13.2754 2.23537 11.7987 1.5784 10.2366 1.49719C8.67448 1.41598 7.13765 1.91629 5.92272 2.90155C4.70779 3.88682 3.90088 5.28719 3.65774 6.83241C3.41459 8.37762 3.75244 9.95813 4.60608 11.2689L9.00468 18.0215C9.10256 18.1717 9.2364 18.2952 9.39406 18.3807C9.55171 18.4661 9.72821 18.5109 9.90754 18.5109C10.0869 18.5109 10.2634 18.4661 10.421 18.3807C10.5787 18.2952 10.7125 18.1717 10.8104 18.0215L15.2091 11.2689C16.0012 10.053 16.3513 8.60173 16.2006 7.15841C16.0499 5.7151 15.4077 4.36743 14.3816 3.3413ZM14.2337 10.6334L9.90755 17.2746L5.58136 10.6334C4.25713 8.60057 4.54114 5.88008 6.25668 4.16447C6.73611 3.68502 7.30529 3.3047 7.93171 3.04523C8.55813 2.78575 9.22952 2.6522 9.90755 2.6522C10.5856 2.6522 11.257 2.78575 11.8834 3.04523C12.5098 3.3047 13.079 3.68502 13.5584 4.16447C15.274 5.88008 15.5579 8.60057 14.2337 10.6334Z" fill="#35E7DC"/>
</svg>
